{
	"asset":{
		"generator":"Khronos glTF Blender I/O v5.0.21",
		"version":"2.0"
	},
	"extensionsUsed":[
		"KHR_materials_specular"
	],
	"scene":0,
	"scenes":[
		{
			"name":"Scene",
			"nodes":[
				5
			]
		}
	],
	"nodes":[
		{
			"mesh":0,
			"name":"Cups_Coffee_0"
		},
		{
			"mesh":1,
			"name":"Cups_Cup1_0"
		},
		{
			"children":[
				0,
				1
			],
			"name":"Cups",
			"rotation":[
				-0.70710688829422,
				0,
				0,
				0.7071066498756409
			],
			"scale":[
				0.3154860734939575,
				0.3154860734939575,
				0.3154860734939575
			]
		},
		{
			"children":[
				2
			],
			"name":"RootNode"
		},
		{
			"children":[
				3
			],
			"name":"99bc674790794d459cd22c75856706b8.fbx",
			"rotation":[
				0.70710688829422,
				0,
				0,
				0.7071066498756409
			]
		},
		{
			"children":[
				4
			],
			"name":"Sketchfab_model",
			"rotation":[
				-0.70710688829422,
				0,
				0,
				0.7071066498756409
			],
			"scale":[
				0.025063617154955864,
				0.025063620880246162,
				0.025063620880246162
			]
		}
	],
	"materials":[
		{
			"doubleSided":true,
			"extensions":{
				"KHR_materials_specular":{
					"specularTexture":{
						"index":0
					}
				}
			},
			"name":"Coffee",
			"normalTexture":{
				"index":1
			},
			"occlusionTexture":{
				"index":2
			},
			"pbrMetallicRoughness":{
				"baseColorTexture":{
					"index":3
				},
				"metallicRoughnessTexture":{
					"index":2
				}
			}
		},
		{
			"doubleSided":true,
			"name":"Cup1",
			"normalTexture":{
				"index":4
			},
			"occlusionTexture":{
				"index":5
			},
			"pbrMetallicRoughness":{
				"baseColorTexture":{
					"index":6
				},
				"metallicRoughnessTexture":{
					"index":5
				}
			}
		}
	],
	"meshes":[
		{
			"name":"Cups_Coffee_0",
			"primitives":[
				{
					"attributes":{
						"POSITION":0,
						"NORMAL":1,
						"TEXCOORD_0":2
					},
					"indices":3,
					"material":0
				}
			]
		},
		{
			"name":"Cups_Cup1_0",
			"primitives":[
				{
					"attributes":{
						"POSITION":4,
						"NORMAL":5,
						"TEXCOORD_0":6
					},
					"indices":7,
					"material":1
				}
			]
		}
	],
	"textures":[
		{
			"sampler":0,
			"source":0
		},
		{
			"sampler":0,
			"source":1
		},
		{
			"sampler":0,
			"source":2
		},
		{
			"sampler":0,
			"source":3
		},
		{
			"sampler":0,
			"source":4
		},
		{
			"sampler":0,
			"source":5
		},
		{
			"sampler":0,
			"source":6
		}
	],
	"images":[
		{
			"mimeType":"image/png",
			"name":"Coffee_specularf0",
			"uri":"texture/Coffee_specularf0.png"
		},
		{
			"mimeType":"image/png",
			"name":"Coffee_normal",
			"uri":"texture/Coffee_normal.png"
		},
		{
			"mimeType":"image/png",
			"name":"Coffee_metallicRoughness",
			"uri":"texture/Coffee_metallicRoughness.png"
		},
		{
			"mimeType":"image/png",
			"name":"Coffee_baseColor",
			"uri":"texture/Coffee_baseColor.png"
		},
		{
			"mimeType":"image/png",
			"name":"Cup1_normal",
			"uri":"texture/Cup1_normal.png"
		},
		{
			"mimeType":"image/png",
			"name":"Cup1_metallicRoughness",
			"uri":"texture/Cup1_metallicRoughness.png"
		},
		{
			"mimeType":"image/png",
			"name":"Cup1_baseColor",
			"uri":"texture/Cup1_baseColor.png"
		}
	],
	"accessors":[
		{
			"bufferView":0,
			"componentType":5126,
			"count":21,
			"max":[
				13.930912971496582,
				13.930915832519531,
				33.04885482788086
			],
			"min":[
				-13.930913925170898,
				-13.930910110473633,
				33.04885482788086
			],
			"type":"VEC3"
		},
		{
			"bufferView":1,
			"componentType":5126,
			"count":21,
			"type":"VEC3"
		},
		{
			"bufferView":2,
			"componentType":5126,
			"count":21,
			"type":"VEC2"
		},
		{
			"bufferView":3,
			"componentType":5123,
			"count":60,
			"type":"SCALAR"
		},
		{
			"bufferView":4,
			"componentType":5126,
			"count":3507,
			"max":[
				14.732551574707031,
				26.2081298828125,
				40.514244079589844
			],
			"min":[
				-14.732552528381348,
				-14.732549667358398,
				0.17030662298202515
			],
			"type":"VEC3"
		},
		{
			"bufferView":5,
			"componentType":5126,
			"count":3507,
			"type":"VEC3"
		},
		{
			"bufferView":6,
			"componentType":5126,
			"count":3507,
			"type":"VEC2"
		},
		{
			"bufferView":7,
			"componentType":5123,
			"count":18960,
			"type":"SCALAR"
		}
	],
	"bufferViews":[
		{
			"buffer":0,
			"byteLength":252,
			"byteOffset":0,
			"target":34962
		},
		{
			"buffer":0,
			"byteLength":252,
			"byteOffset":252,
			"target":34962
		},
		{
			"buffer":0,
			"byteLength":168,
			"byteOffset":504,
			"target":34962
		},
		{
			"buffer":0,
			"byteLength":120,
			"byteOffset":672,
			"target":34963
		},
		{
			"buffer":0,
			"byteLength":42084,
			"byteOffset":792,
			"target":34962
		},
		{
			"buffer":0,
			"byteLength":42084,
			"byteOffset":42876,
			"target":34962
		},
		{
			"buffer":0,
			"byteLength":28056,
			"byteOffset":84960,
			"target":34962
		},
		{
			"buffer":0,
			"byteLength":37920,
			"byteOffset":113016,
			"target":34963
		}
	],
	"samplers":[
		{
			"magFilter":9729,
			"minFilter":9987
		}
	],
	"buffers":[
		{
			"byteLength":150936,
			"uri":"Blue.bin"
		}
	]
}
