{
	"asset":{
		"generator":"Khronos glTF Blender I/O v5.0.21",
		"version":"2.0"
	},
	"extensionsUsed":[
		"KHR_materials_specular",
		"KHR_materials_ior"
	],
	"scene":0,
	"scenes":[
		{
			"name":"Scene",
			"nodes":[
				0
			]
		}
	],
	"nodes":[
		{
			"mesh":0,
			"name":"Bar5to2_036_Coffee_Machine_M_0"
		}
	],
	"materials":[
		{
			"doubleSided":true,
			"extensions":{
				"KHR_materials_specular":{
					"specularColorTexture":{
						"index":0
					}
				},
				"KHR_materials_ior":{
					"ior":1000
				}
			},
			"name":"Coffee_Machine_M",
			"normalTexture":{
				"index":1
			},
			"pbrMetallicRoughness":{
				"baseColorTexture":{
					"index":2
				},
				"metallicFactor":0,
				"metallicRoughnessTexture":{
					"index":3
				}
			}
		}
	],
	"meshes":[
		{
			"name":"Bar5to2_036_Coffee_Machine_M_0",
			"primitives":[
				{
					"attributes":{
						"POSITION":0,
						"NORMAL":1,
						"TEXCOORD_0":2
					},
					"indices":3,
					"material":0
				}
			]
		}
	],
	"textures":[
		{
			"sampler":0,
			"source":0
		},
		{
			"sampler":0,
			"source":1
		},
		{
			"sampler":0,
			"source":2
		},
		{
			"sampler":0,
			"source":3
		}
	],
	"images":[
		{
			"mimeType":"image/png",
			"name":"Coffee_Machine_M_specularGlossiness",
			"uri":"texture/Coffee_Machine_M_specularGlossiness.png"
		},
		{
			"mimeType":"image/png",
			"name":"Coffee_Machine_M_normal",
			"uri":"texture/Coffee_Machine_M_normal.png"
		},
		{
			"mimeType":"image/png",
			"name":"Coffee_Machine_M_diffuse",
			"uri":"texture/Coffee_Machine_M_diffuse.png"
		},
		{
			"mimeType":"image/png",
			"name":"Coffee_Machine_M_specularGlossiness",
			"uri":"texture/Coffee_Machine_M_specularGlossiness-1.png"
		}
	],
	"accessors":[
		{
			"bufferView":0,
			"componentType":5126,
			"count":1648,
			"max":[
				1.3886070251464844,
				1.6271049976348877,
				7.328096866607666
			],
			"min":[
				0.3608349859714508,
				1.0743639469146729,
				6.8993000984191895
			],
			"type":"VEC3"
		},
		{
			"bufferView":1,
			"componentType":5126,
			"count":1648,
			"type":"VEC3"
		},
		{
			"bufferView":2,
			"componentType":5126,
			"count":1648,
			"type":"VEC2"
		},
		{
			"bufferView":3,
			"componentType":5123,
			"count":5964,
			"type":"SCALAR"
		}
	],
	"bufferViews":[
		{
			"buffer":0,
			"byteLength":19776,
			"byteOffset":0,
			"target":34962
		},
		{
			"buffer":0,
			"byteLength":19776,
			"byteOffset":19776,
			"target":34962
		},
		{
			"buffer":0,
			"byteLength":13184,
			"byteOffset":39552,
			"target":34962
		},
		{
			"buffer":0,
			"byteLength":11928,
			"byteOffset":52736,
			"target":34963
		}
	],
	"samplers":[
		{
			"magFilter":9729,
			"minFilter":9987
		}
	],
	"buffers":[
		{
			"byteLength":64664,
			"uri":"coffee-machine.bin"
		}
	]
}
